# xmcd
#
# Track frame offsets: 
#        150
#        18519
#        38891
#        58633
#        72622
#        83436
#        94924
#        110393
#        130844
#        144716
#        162624
#        181112
#        194322
#        208026
#        227965
#
# Disc length: 3179 seconds
#
# Revision: 0
# Processed by: cddbd v1.5.2PL0 Copyright (c) Steve Scherf et al.
# Submitted via: ExactAudioCopy v0.99pb4
#
DISCID=d60c690f
DTITLE=Tropical Show - ENHORABUENA
DYEAR=1900
DGENRE=
TTITLE0=Estan sonando tambores
TTITLE1=A la loma a regoger café
TTITLE2=El chicharrón
TTITLE3=El mango
TTITLE4=Un hombre solo
TTITLE5=Quízas, quízas,  quízas
TTITLE6=Rico vacilón
TTITLE7=La carta
TTITLE8=Rumba y guaguancó
TTITLE9=Hasta siempre
TTITLE10=Guantanamera
TTITLE11=La Bayamesa
TTITLE12=Chan chan
TTITLE13=Ponte pá la cosa
TTITLE14=Canción de despedida
EXTD=Música tradicional Cubana
EXTT0=Orlando Quesada\n(Son)
EXTT1=Orlando Quesada
EXTT2=Andrés Araujo\n(Guaracha)
EXTT3=A.Pérez y C. Puig\n(Son montuno)
EXTT4=D.R.\n(Canción)
EXTT5=Osvaldo Farrer
EXTT6=Enrique Jorrín\n(Cha, cha, cha)
EXTT7=D.R.\n(Bachata)
EXTT8=D.R.\n(Son)
EXTT9=Carlos Puebla\n(Guajira)
EXTT10=Joseito Fernández
EXTT11=Céspedes y Fornaris\n(Canción)
EXTT12=Francisco Repilado\n(Son)
EXTT13=Misleydis González\n(Cumbia)
EXTT14=D.R.\n(Canción)
PLAYORDER=
